<svg width="147" height="123" viewBox="0 0 147 123" fill="none" xmlns="http://www.w3.org/2000/svg">
<path d="M107.866 22.6221C109.111 23.4062 110.097 24.5392 110.702 25.8799C111.515 27.7817 112.086 29.7773 112.404 31.8207C111.934 31.8331 111.467 31.8921 111.009 31.997C110.955 31.997 110.649 32.1579 110.595 32.3266C110.35 33.1764 110.163 34.0421 110.036 34.9175L94.7046 35.0095C94.5283 35.0095 94.5513 35.2165 94.7046 35.2241C94.7046 35.2241 108.702 35.4388 110.036 35.4464C109.698 38.2367 109.982 41.3029 111.96 43.2806C113.822 45.1203 120.154 45.3809 122.507 43.6255C124.462 42.1614 124.945 37.9301 124.807 35.4464C125.267 35.4464 135.631 35.2625 136.658 35.2241C136.686 35.2241 136.714 35.2128 136.734 35.1927C136.754 35.1726 136.765 35.1453 136.765 35.1168C136.765 35.0884 136.754 35.0611 136.734 35.0409C136.714 35.0208 136.686 35.0095 136.658 35.0095C134.91 35.0095 124.784 34.9328 124.784 34.9328C124.577 32.6332 124.017 32.4032 124.017 32.2959C124.011 32.2249 123.983 32.1578 123.936 32.1041C123.889 32.0504 123.826 32.0129 123.757 31.997C123.09 31.8666 122.413 31.7974 121.733 31.79C122.806 30.0653 123.726 25.374 125.413 22.2311C127.912 17.5475 137.317 22.0088 137.164 17.8694C136.98 13.2701 131.875 10.6869 126.394 13.1245C121.189 15.4242 119.832 26.1559 119.74 31.7593C118.169 31.7593 118.928 31.8053 116.674 31.7593C118.644 29.1377 121.151 20.3991 120.714 14.2897C120.213 10.2352 118.507 6.42444 115.815 3.35099C113.454 0.706393 110.687 -0.412771 108.602 1.71057C105.536 4.77677 108.357 8.20325 110.978 11.6757C113.861 15.5085 114.941 17.4172 115.332 22.875C115.516 25.8362 115.459 28.8073 115.164 31.7593H114.313C114.972 29.6053 114.121 24.8604 113.5 22.6297C112.611 19.4792 111.093 16.3057 108.686 14.121C105.843 11.6658 102.385 10.0308 98.683 9.3914C96.4216 9.00813 94.4899 9.15377 93.4398 9.78234C93.0536 9.98321 92.7553 10.3198 92.6025 10.7274C92.4497 11.135 92.453 11.5847 92.6119 11.99C93.8844 16.1524 102.884 19.5559 107.866 22.6221ZM126.547 13.6151C131.675 11.3154 136.397 13.7301 136.558 17.9001C136.681 21.0966 127.459 17.1336 124.945 22.0318C123.197 25.42 122.423 30.1572 121.365 31.7977H120.821C121.587 28.4172 123.466 20.8973 125.673 18.2374C128.494 14.7956 133.408 16.8039 133.622 16.7503C133.707 16.7503 133.791 16.6123 133.538 16.5203C130.472 15.4088 127.352 15.4318 125.267 17.9001C122.76 20.859 121.181 27.9879 120.522 31.8207H119.863C120.07 26.4548 121.572 15.7998 126.547 13.6151ZM115.723 22.8674C115.417 17.4555 114.42 15.4701 111.392 11.3691C108.909 8.03461 106.249 4.85343 108.993 2.07085C110.863 0.169808 113.301 1.3043 115.417 3.69594C118.007 6.69482 119.641 10.4004 120.108 14.3357C120.606 20.5447 118.077 29.4597 116.275 31.767H115.869C116.689 28.257 117.22 24.6857 117.456 21.089C117.632 18.0228 117.578 15.8917 116.689 13.2242C115.959 11.1931 114.944 9.27558 113.677 7.52869C113.072 6.66704 112.406 5.84985 111.684 5.08339C111.665 5.06103 111.639 5.04685 111.61 5.04398C111.581 5.0411 111.553 5.04977 111.53 5.06806C111.508 5.08636 111.494 5.11279 111.491 5.14154C111.488 5.17029 111.497 5.19901 111.515 5.22137C111.707 5.422 111.886 5.6345 112.052 5.85761C114.443 8.92381 116.804 13.4005 116.988 17.3559C117.172 21.3113 116.383 27.9113 115.654 31.8207H115.44C115.778 28.849 115.873 25.8545 115.723 22.8674ZM123.535 32.6485C124.799 33.806 124.401 41.4945 122.109 43.2116C119.817 44.9287 113.845 44.5224 112.22 42.951C109.66 40.4903 109.921 35.8834 110.794 32.4646C110.849 32.5362 110.924 32.5897 111.009 32.6179C111.598 32.7539 112.199 32.836 112.803 32.8632C112.052 35.645 112.184 38.5911 113.178 41.2952C113.215 41.3725 113.281 41.432 113.361 41.4608C113.442 41.4895 113.53 41.4851 113.608 41.4485C113.685 41.4119 113.744 41.3461 113.773 41.2656C113.802 41.1851 113.798 41.0965 113.761 41.0193C112.795 39.0876 112.535 34.7949 113.094 32.9168C115.486 33.0241 121.886 33.0701 123.535 32.6485ZM108.357 14.512C113.554 19.1113 114.888 29.2987 114.083 31.7823H113.608C113.499 29.6523 113.128 27.5437 112.504 25.5043C110.848 20.1384 108.073 16.8423 103.819 14.3586C101.596 13.0874 99.218 12.1108 96.7436 11.4534C96.7151 11.4463 96.685 11.4508 96.6598 11.4659C96.6347 11.481 96.6166 11.5054 96.6094 11.5339C96.6023 11.5624 96.6068 11.5925 96.6219 11.6177C96.637 11.6428 96.6615 11.6609 96.6899 11.6681C99.5785 12.584 102.32 13.9109 104.831 15.6081C107.614 17.4613 109.788 20.0963 111.078 23.1816C112.302 25.9089 113.079 28.8156 113.378 31.79H112.657C112.374 29.686 111.828 27.6259 111.032 25.6576C110.41 24.2422 109.39 23.0383 108.096 22.1928C103.029 19.0729 94.2983 15.6541 93.1331 11.8214C92.0523 8.3029 102.47 9.23809 108.357 14.512ZM42.0732 53.9816C31.8628 50.4325 22.7102 48.8457 17.0147 47.4123C16.9442 47.3925 16.8704 47.3871 16.7977 47.3965C16.7251 47.4059 16.655 47.4298 16.5919 47.467C16.5287 47.5041 16.4736 47.5535 16.4301 47.6124C16.3865 47.6713 16.3552 47.7384 16.3382 47.8097C16.3211 47.8809 16.3186 47.9549 16.3309 48.0271C16.3431 48.0994 16.3698 48.1684 16.4094 48.2301C16.4489 48.2917 16.5005 48.3448 16.5611 48.386C16.6216 48.4273 16.6899 48.4559 16.7618 48.4701C20.4259 49.3517 25.9604 50.3635 31.9471 51.751C41.8356 54.0506 42.0502 54.7328 42.2112 54.2576C42.2284 54.2027 42.2236 54.1432 42.1979 54.0918C42.1722 54.0403 42.1275 54.0008 42.0732 53.9816ZM122.983 60.183C122.983 60.1649 122.979 60.1469 122.972 60.1302C122.965 60.1135 122.955 60.0983 122.942 60.0854C122.929 60.0726 122.914 60.0625 122.897 60.0555C122.881 60.0486 122.863 60.045 122.845 60.045C116.122 60.045 109.583 61.5781 105.881 61.9231C105.836 61.9269 105.792 61.9397 105.752 61.9608C105.712 61.9819 105.677 62.0108 105.648 62.0459C105.619 62.0809 105.598 62.1214 105.585 62.1648C105.573 62.2082 105.569 62.2538 105.574 62.2987C105.578 62.3441 105.591 62.3882 105.612 62.4286C105.633 62.469 105.662 62.5048 105.697 62.5341C105.732 62.5633 105.772 62.5853 105.815 62.5988C105.859 62.6124 105.905 62.6172 105.95 62.613C108.663 62.3447 113.362 61.3175 117.762 60.7503C122.645 60.183 122.99 60.528 122.983 60.183ZM99.8251 76.1349C99.8318 76.1224 99.8358 76.1086 99.8371 76.0944C99.8384 76.0803 99.8368 76.066 99.8326 76.0525C99.8283 76.0389 99.8214 76.0264 99.8122 76.0155C99.803 76.0047 99.7918 75.9957 99.7791 75.9893L99.5875 75.8896L99.5415 76.1196C99.6718 76.1809 99.7715 76.2806 99.8251 76.1349Z" fill="white"/>
<path d="M146.385 78.0512C144.415 77.6449 139.548 77.8059 137.539 77.9822C139.195 72.3251 140.905 64.9509 141.594 60.8882C141.844 59.7639 141.952 58.6128 141.916 57.4617C141.891 57.3583 141.845 57.2613 141.78 57.1769C141.716 57.0924 141.634 57.0223 141.541 56.9711C138.475 55.047 106.348 59.2707 104.11 60.3822C103.443 60.7118 102.845 62.3753 102.577 63.1265C100.592 59.861 100.799 59.0868 98.5833 53.9279C97.2028 50.5676 95.4519 47.3718 93.3631 44.3997C93.4168 43.9934 95.5401 28.1335 93.2635 23.8944C91.7304 21.0582 83.4286 20.0617 80.2321 19.7934C80.2321 19.6248 79.8335 16.7272 79.6649 15.4164C82.3631 13.1627 83.4976 9.01571 80.5694 8.31815C78.492 7.82756 70.29 6.2638 64.1806 7.84289C60.3478 8.83941 57.2816 11.0777 57.021 15.5084C56.918 17.1908 57.021 18.8795 57.3276 20.537C53.3645 20.9739 46.5422 21.6255 43.0621 22.9363C38.5854 24.6227 40.4712 44.208 40.9464 45.7948C40.6858 46.4387 40.4405 47.0903 40.2182 47.6958C29.0649 44.8519 4.09837 39.5474 2.98687 39.647C2.69736 39.6435 2.41147 39.7117 2.15468 39.8454C1.89789 39.9792 1.67817 40.1744 1.51509 40.4136C1.21614 40.4826 1.10882 40.9042 1.05516 41.1801C0.288614 45.2582 1.67607 69.6115 1.92137 73.7432C2.32764 75.2303 14.1402 78.4575 15.6733 78.8791C15.7499 80.8951 16.1562 90.9062 16.2405 92.9606C15.5736 92.8391 14.9135 92.6831 14.2628 92.493C12.8984 91.9334 7.67049 97.0233 8.13042 96.6017C6.12973 98.3801 27.8997 104.229 29.6398 103.738C31.3799 103.248 34.8217 99.9592 34.2391 98.1272C34.078 97.8012 33.8063 97.5431 33.4726 97.3989C31.8245 96.5327 27.4628 95.4672 25.6461 95.0303C25.8224 91.3202 25.8224 85.2338 25.8147 81.539C27.9687 82.0756 40.1952 85.0345 42.4029 84.9961C42.5611 84.9984 42.7172 84.9587 42.8551 84.8812C43.5604 84.7815 44.3882 84.6052 44.4572 83.8847C44.4572 83.67 44.6335 81.7996 44.8558 79.0247C50.26 81.0867 56.814 80.9334 57.9792 80.4582C58.2933 80.3067 58.5588 80.0704 58.7457 79.7759C58.7994 79.8449 58.8224 79.8296 59.2286 79.8909C60.7617 80.1362 63.2147 80.3662 64.5945 79.6456C66.5492 79.9599 72.214 80.4122 72.6356 78.5188C72.6893 78.2658 72.7659 77.7523 72.8426 77.1313C78.515 77.438 98.66 77.3 98.7366 77.3L98.269 79.408C98.2572 79.3906 98.2412 79.3765 98.2224 79.3671C98.2036 79.3578 98.1827 79.3533 98.1617 79.3543C98.1617 79.293 98.1617 79.3083 98.1617 79.3543C95.0228 79.107 91.873 79.0251 88.7255 79.109C87.6063 79.1627 84.6551 79.3007 84.6014 80.3892C84.2095 81.3143 84.1525 82.3472 84.4405 83.3097C84.6091 83.9153 86.0349 84.8965 86.5638 85.2568C83.5666 84.9578 81.8189 85.0728 80.9143 85.3948C80.6992 85.4323 80.4987 85.5287 80.3351 85.6734C80.1715 85.818 80.0512 86.0052 79.9877 86.2142C79.9241 86.4231 79.9198 86.6456 79.9751 86.8568C80.0304 87.0681 80.1433 87.2598 80.3011 87.4108C81.3283 88.8212 83.4669 89.2965 83.6969 91.1439C84.1339 94.647 75.2265 98.6101 71.9764 99.9975C73.6091 97.8512 77.9861 91.0979 75.8628 89.4651C73.5018 87.6484 53.2572 86.8512 51.3945 87.3265C50.0837 87.6637 40.4482 94.785 40.6245 97.2916C40.7471 98.9244 50.2293 100.526 51.9924 100.833C53.9778 101.17 68.1436 103.378 69.8377 102.297C70.197 102.152 70.5233 101.936 70.7973 101.662C71.0712 101.388 71.2872 101.062 71.4321 100.703C74.3675 99.6938 77.1927 98.389 79.8642 96.8087C84.0802 94.1947 86.4412 90.9599 82.2711 88.2387C81.7729 87.9167 80.4084 86.9355 80.6077 86.3836C81.037 85.1648 86.9624 85.6171 87.0467 85.6171C89.7987 87.4108 95.0648 90.178 98.1694 90.9829C101.45 91.8491 116.781 90.1704 120.484 89.7028C120.905 91.2359 121.312 92.6616 121.58 93.5355C121.005 93.5815 119.364 93.7271 118.905 94.0874C118.652 94.2867 118.659 94.624 119.066 94.854C119.066 97.4219 118.751 105.103 119.518 108.568C119.809 109.863 120.146 110.4 121.488 110.867C124.025 111.687 128.9 111.396 131.453 110.714C133.04 110.285 133.247 109.947 133.5 109.104C134.374 106.237 134.328 97.7745 134.266 94.7697C134.315 94.7341 134.355 94.6875 134.383 94.6335C134.41 94.5795 134.425 94.5198 134.425 94.4592C134.425 94.3986 134.41 94.3389 134.383 94.2849C134.355 94.2309 134.315 94.1843 134.266 94.1488C133.699 93.8858 133.088 93.7299 132.465 93.6888C132.572 92.8303 133.147 88.0317 133.231 87.1885C133.632 86.9481 133.99 86.6424 134.289 86.284C134.758 85.7144 135.063 85.0281 135.171 84.2986C135.937 83.2944 137.041 79.546 137.401 78.3195C140.82 78.4651 145.833 78.2658 146.301 78.3195C146.337 78.3307 146.375 78.3273 146.408 78.31C146.441 78.2928 146.466 78.2631 146.477 78.2275C146.489 78.1919 146.485 78.1534 146.468 78.1203C146.451 78.0872 146.421 78.0624 146.385 78.0512ZM42.7708 94.5934C43.2844 94.0261 43.89 93.4359 44.5339 92.838C47.2705 90.3083 50.7506 87.7634 51.5095 87.5718C53.3492 87.0965 73.5555 88.3383 75.6098 89.8714C75.9548 90.132 76.0238 90.638 75.9548 91.2435C75.6788 93.6505 73.1645 97.6212 71.7004 99.5606C70.0447 98.1348 44.9631 94.8923 42.7708 94.5934ZM80.3318 20.3453C83.26 20.6213 91.4697 21.5641 92.8802 24.1244C94.8732 27.7272 93.6467 40.015 93.1561 44.0547C92.7269 43.4798 92.2823 42.9356 91.83 42.4373C89.2314 39.5857 84.7701 38.1523 80.991 37.4241C78.5634 37.0013 76.1144 36.7122 73.6551 36.5579C73.5785 36.5579 73.7011 36.6728 73.0955 35.431C72.191 33.5683 72.1373 33.599 72.2293 33.5453C73.2344 33.4918 74.2299 33.322 75.1959 33.0394C77.7868 32.2728 79.3276 30.7397 80.0558 27.0143C80.4512 24.8062 80.5338 22.5534 80.3011 20.3223L80.3318 20.3453ZM73.7318 36.7955C74.2147 36.8645 74.345 36.8568 74.3833 36.8798C74.3833 37.0714 76.0621 46.0784 70.313 46.4923C65.5603 46.8833 62.4328 40.2143 60.7464 35.7606C61.3597 35.661 61.8502 35.592 62.1799 35.546C62.3408 39.0415 67.3694 45.3808 70.1596 44.9362C73.2948 44.4227 74.8356 39.6547 73.7318 36.7955ZM62.2872 22.691C62.3559 22.349 62.509 22.0296 62.7325 21.7618C62.9561 21.4941 63.2431 21.2865 63.5673 21.1579C65.1004 20.7823 65.1004 22.691 66.3192 22.5836C67.8523 22.484 66.1429 18.9272 67.4614 16.7579C68.8948 14.3662 74.7053 19.2032 79.4042 15.6157C79.9715 19.6554 80.5924 22.7983 79.7262 26.9223C78.9596 30.5404 77.5339 31.8742 75.0732 32.5948C74.0621 32.8276 73.0383 33.0016 72.007 33.116C71.9248 33.1625 71.8556 33.2291 71.806 33.3095C71.7564 33.3899 71.728 33.4816 71.7234 33.576C71.7234 33.8443 72.49 35.2164 73.2029 36.8185C74.2684 39.3328 72.8809 43.9014 70.0753 44.3383C68.0823 44.6526 64.1806 40.1836 63.0691 37.0254C62.5785 35.6303 62.7241 35.5767 63.5903 30.1265C64.8091 30.2108 65.0621 27.8269 65.1234 26.5927C65.1361 26.3311 65.0452 26.075 64.8704 25.8798C64.3185 25.2742 63.8663 25.9795 62.7931 24.638C62.5589 24.3777 62.3907 24.065 62.3027 23.7262C62.2146 23.3873 62.2093 23.0323 62.2872 22.691ZM57.4349 21.0889C58.4621 25.7802 61.1603 29.038 63.0154 29.9425C62.6781 32.0965 62.2948 34.4958 62.1952 35.2241C57.772 35.4459 53.4099 36.351 49.2635 37.907C47.4222 38.612 45.7063 39.6085 44.1813 40.8582C43.3381 36.4889 45.5074 27.9495 45.2391 25.5272C45.1165 24.5 44.8252 23.4115 43.821 23.1892C47.2551 22.1084 53.6175 21.4951 57.4349 21.0889ZM43.3611 23.3885C43.5443 23.3948 43.7243 23.438 43.8903 23.5158C44.0563 23.5935 44.2048 23.7041 44.3269 23.8408C44.6725 24.3623 44.8467 24.9786 44.8252 25.6039C44.9938 27.9035 42.6098 36.3815 43.9513 41.0805C42.6592 42.2921 41.6806 43.7994 41.0997 45.4728C40.4865 41.7397 39.467 24.7453 43.3611 23.3885ZM15.8189 58.3125C15.8802 57.9523 16.5395 57.7913 16.8998 57.73C19.5597 57.293 25.0865 58.8108 24.9639 60.6582C24.7799 63.3948 25.6231 96.5557 24.9025 97.7745C24.044 99.2386 19.3527 98.4261 17.4823 97.123C16.6315 96.5327 16.6468 96.0268 16.6698 96.1265C16.0182 70.0254 15.7116 58.9105 15.8189 58.3125ZM33.5875 98.3801C33.9785 99.6833 30.9046 102.68 29.4788 103.079C28.0531 103.478 7.03425 98.0352 8.40638 96.7934C7.77014 97.3683 11.8252 93.6352 13.6113 93.0373C13.7536 92.9663 13.9163 92.9473 14.0712 92.9836C14.2782 93.0756 15.0907 93.2826 16.2635 93.5585C16.3325 95.1759 16.3785 96.1341 16.3785 96.1341C16.8308 98.3878 24.044 100.09 25.3011 98.0122C25.4936 97.276 25.5966 96.5193 25.6078 95.7585C26.7806 96.0498 32.798 97.5139 33.5875 98.3801ZM42.4029 84.3446C40.3868 84.4212 27.8384 81.4777 25.8147 81.0024C25.7764 72.0185 25.5924 61.946 25.6844 60.7042C25.8684 57.8833 18.6935 56.3502 16.1639 57.1781C15.9132 57.2331 15.6828 57.3569 15.4987 57.5357C15.3145 57.7144 15.1838 57.941 15.1214 58.1899C14.9527 59.2094 15.6119 77.3536 15.6503 78.4421C14.4008 78.1049 2.69558 74.985 2.21265 73.7355C2.08234 70.9146 0.832865 43.6408 1.72206 41.0575C5.89209 42.1 41.506 49.2826 44.0126 51.0227C44.6412 52.7474 43.2077 81.907 42.4029 84.3446ZM44.2043 83.8923C44.2043 84.4059 43.522 84.5822 43.0161 84.6589C43.844 82.6735 45.4921 52.4638 44.6489 50.6854C43.8057 48.907 5.34784 41.4331 1.75272 40.4289C1.91261 40.2559 2.10727 40.1187 2.32392 40.0262C2.54058 39.9338 2.77434 39.8881 3.00987 39.8923C4.07537 39.8157 43.3994 48.6004 45.6837 49.8575C46.067 50.9613 45.6837 58.6498 45.63 59.9146C45.4921 62.9655 44.2349 83.4784 44.2043 83.8923ZM64.9011 78.7028C64.0042 79.8986 60.8231 79.7529 59.3283 79.615H58.9604C59.6423 78.2439 60.0288 76.7449 60.0948 75.215C60.8614 75.0003 63.667 74.3488 64.0962 75.0387C64.2265 75.238 63.8126 75.4756 63.598 75.5906C63.0312 75.8536 62.4374 76.054 61.8272 76.1885C61.7368 76.2058 61.6569 76.2583 61.6051 76.3345C61.5534 76.4107 61.534 76.5043 61.5513 76.5948C61.5686 76.6852 61.6211 76.7651 61.6973 76.8169C61.7735 76.8686 61.8671 76.888 61.9576 76.8707C62.7241 76.7634 64.8168 76.4721 65.5603 76.7251C65.254 77.1502 64.8141 77.4606 64.3109 77.6066C63.5942 77.6017 62.8784 77.6607 62.1722 77.7829C62.0704 77.8021 61.9793 77.8581 61.9162 77.9402C61.8531 78.0223 61.8224 78.1248 61.83 78.2281C61.8376 78.3313 61.8829 78.4282 61.9573 78.5002C62.0317 78.5722 62.13 78.6143 62.2335 78.6185C63.0121 78.6411 63.7892 78.5349 64.5332 78.3042C64.7271 78.3122 64.9173 78.3591 65.0928 78.4421C65.0436 78.5453 64.9699 78.6348 64.8781 78.7028H64.9011ZM72.1527 78.4345C72.1202 78.5539 72.0594 78.6637 71.9753 78.7544C71.8912 78.8452 71.7863 78.9143 71.6697 78.9557C70.2516 79.7223 66.6718 79.5843 65.0774 79.4233C65.6677 78.9711 66.0126 78.2352 65.4147 77.8289C66.5952 77.0624 66.4725 76.2421 65.6983 76.0045C65.1969 75.883 64.6787 75.8467 64.1652 75.8972C64.6482 75.5369 64.8245 75.1307 64.5332 74.6937C64.1116 74.0958 63.0001 74.1725 62.3102 74.2875C61.9819 71.2526 61.813 68.2027 61.8042 65.1502C63.8509 66.6373 70.6349 66.6833 73.0035 65.2728C73.1185 67.8484 72.3443 77.3153 72.122 78.4345H72.1527ZM65.5757 76.6944C65.5757 76.6944 65.5527 76.7097 65.5527 76.6944H65.5757ZM82.0258 76.8631C83.444 72.716 83.6433 63.9314 83.5589 59.539C84.7471 61.4477 91.2244 70.6003 91.2704 70.677C91.4278 70.9177 91.613 71.139 91.8223 71.3362C93.3669 72.7477 95.1007 73.9371 96.9736 74.87C98.9743 75.9279 99.1352 75.8742 99.1199 75.9585L98.8516 77.1084C98.7213 77.1007 83.1987 76.8631 82.0028 76.8631H82.0258ZM85.3297 80.3049C86.9778 79.155 98.1847 79.6763 98.3074 79.5996V79.684C97.2342 84.8198 96.8203 86.6749 96.6899 87.3495C96.7589 87.0505 97.1805 85.0498 97.6635 82.8345C98.0007 81.2094 98.43 79.2777 98.8669 77.231C99.0662 76.2958 99.1965 75.6979 99.2042 75.6519C97.1039 74.5404 93.8997 72.624 92.2209 70.93C91.7993 70.5007 83.6509 59.2094 83.5743 59.0791C83.4976 58.9488 83.4976 55.5836 83.4133 55.4303C83.3972 55.4129 83.3762 55.4009 83.3531 55.3959C83.3299 55.3909 83.3058 55.3932 83.284 55.4024C83.2622 55.4116 83.2438 55.4274 83.2312 55.4474C83.2187 55.4675 83.2127 55.491 83.214 55.5146C83.1373 55.5146 83.214 71.9035 81.7959 76.8401L72.9652 76.9244C73.0189 76.4951 73.0725 75.9969 73.1339 75.4603C76.6907 75.9125 78.3081 72.0108 77.3652 68.8296C76.8056 67.0819 75.3645 66.8136 73.7164 67.6568C73.7931 66.6362 73.7931 65.6112 73.7164 64.5906C73.7875 64.4144 73.7998 64.22 73.7515 64.0363C73.7031 63.8526 73.5967 63.6894 73.4481 63.5711C72.306 62.4979 69.1095 62.3829 67.5534 62.3829C65.9973 62.3829 62.7931 62.5056 61.6586 63.5711C61.5592 63.6479 61.4803 63.7479 61.4286 63.8624C60.8461 64.9125 61.9652 74.1188 62.1032 74.3181C61.4356 74.451 60.7775 74.6277 60.1332 74.847V73.6206C60.0872 70.9453 51.5325 69.4582 51.2412 67.9328C51.1415 67.4115 50.9806 66.2463 50.7966 64.8666C49.7617 57.293 49.9151 57.5843 49.7464 57.5843C49.718 57.5843 49.6907 57.5956 49.6705 57.6158C49.6504 57.6359 49.6391 57.6632 49.6391 57.6916C49.6391 57.8986 50.467 66.2387 50.7659 68.0094C51.0649 69.7801 59.5583 71.4972 59.5966 73.6206C59.5966 75.2763 59.2286 79.385 57.7952 79.9753C56.929 80.3432 50.2293 80.6805 44.8865 78.8024C45.0015 77.3153 47.1325 50.693 46.1053 49.5126C45.7144 49.0603 41.1227 47.9105 40.5402 47.7648C42.8398 42.5523 44.5415 38.2596 60.5318 35.753C60.9759 37.2414 61.5188 38.6985 62.1569 40.1146C63.7819 43.5871 66.5339 47.3355 70.3436 47.0136C74.7206 46.638 75.4258 41.893 74.7283 37.562C74.6823 37.2554 74.6363 37.0561 74.598 36.8798C76.7012 37.0903 78.7918 37.4127 80.8607 37.8457C84.4711 38.6122 88.9095 40.0686 91.3854 42.8129C94.0607 45.7565 96.3986 50.3021 98.0391 53.9355C100.4 59.1634 100.385 60.5125 102.416 63.5251C100.988 68.0322 99.7902 72.6094 98.8286 77.2387C98.522 78.6721 98.0621 80.8568 97.6251 82.8421C96.9889 85.9083 96.6056 87.8477 96.6439 87.4414C96.575 87.8554 96.6439 87.8401 96.6439 87.9397C94.1449 86.8251 91.7337 85.5234 89.4307 84.0456C88.6258 83.509 84.5171 80.8798 85.3297 80.2895V80.3049ZM73.6551 69.2206C73.6551 68.8219 73.7011 68.454 73.7164 68.0707C75.1039 67.5111 76.338 67.5955 76.7136 69.0442C77.4802 71.6735 76.269 75.1766 73.1798 75.1766C73.1798 74.8087 73.3102 73.7585 73.3255 73.6435C76.8516 74.1188 76.8286 67.6645 73.6551 69.2206ZM73.3562 73.3139C73.4635 72.1028 73.5555 70.8226 73.6321 69.6192C73.9992 69.5058 74.3919 69.5058 74.7589 69.6192C75.6711 69.9488 75.5255 73.1146 73.3178 73.3139H73.3562ZM98.43 90.3237C95.4803 89.3588 92.6267 88.1219 89.906 86.6289C89.1394 86.2226 85.1687 84.061 84.9004 83.2254C84.6686 82.4794 84.6447 81.6843 84.8314 80.9258C85.8586 82.9265 92.3743 86.2916 94.4669 87.2805C95.4251 87.7326 96.4138 88.1168 97.4258 88.4303C100.967 89.6951 116.16 87.6637 119.893 87.2038C119.939 87.3648 120.261 88.5989 120.384 89.0435C117.134 89.4191 101.481 91.1286 98.3917 90.3237H98.43ZM132.679 109.602C131.56 110.553 124.845 111.35 121.679 110.369C120.53 110.009 120.3 109.641 120.024 108.476C119.772 107.211 119.613 105.93 119.548 104.643C121.12 105.609 124.002 105.854 125.849 105.908C128.632 105.969 131.369 105.908 133.607 104.643C133.561 105.455 133.3 109.073 132.679 109.602ZM133.63 104.344C132.118 104.991 130.491 105.327 128.847 105.333C126.654 105.44 121.518 105.425 119.533 104.367C119.449 102.926 119.395 101.385 119.372 99.9515C120.139 100.871 124.224 101.285 125.857 101.339C128.77 101.4 131.476 101.339 133.806 99.9592C133.806 99.8826 133.783 101.699 133.638 104.344H133.63ZM133.806 99.6909C129.974 101.623 120.461 100.749 119.364 99.6909V94.9766C121.802 95.8428 131.438 95.7815 133.852 94.9766C133.837 95.8582 133.845 97.6519 133.814 99.6909H133.806ZM132.273 94.532C132.301 94.5397 132.33 94.5369 132.355 94.5241C132.381 94.5114 132.401 94.4896 132.411 94.463C132.411 94.463 132.411 94.3251 132.457 94.0798C132.951 94.1477 133.438 94.258 133.914 94.4094C132.235 95.1759 122.132 95.2449 119.61 94.5014C119.593 94.496 119.578 94.4853 119.567 94.4708C119.556 94.4564 119.551 94.4389 119.551 94.4209C119.551 94.4029 119.556 94.3854 119.567 94.3709C119.578 94.3565 119.593 94.3457 119.61 94.3404C120.312 94.1494 121.031 94.0212 121.756 93.9571C121.807 94.1703 121.884 94.3764 121.986 94.5704C122.047 94.6317 122.147 94.6394 122.139 94.486C122.132 94.3327 119.617 84.4059 119.234 82.2212C119.626 82.352 120.044 82.3847 120.452 82.3166C120.859 82.2484 121.244 82.0815 121.572 81.8303C122.415 84.1913 125.106 94.8157 125.267 94.8157C125.296 94.8137 125.323 94.8007 125.343 94.7794C125.363 94.758 125.374 94.7299 125.374 94.7007L125.152 93.6658H126.21C126.21 93.8115 126.294 94.555 126.302 94.6087C126.309 94.6624 126.532 94.7927 126.516 94.509C126.516 93.8191 125.872 82.3899 125.857 82.1829C125.967 82.1297 126.083 82.0886 126.202 82.0603C126.286 82.4742 128.985 93.4052 129.192 94.2561C129.192 94.3327 129.192 94.463 129.337 94.4324C129.483 94.4017 129.422 94.2637 129.337 93.7655L130.51 93.8498V93.9801C130.51 94.1028 130.702 94.0721 130.725 93.9801C130.725 94.0644 132.151 79.3543 132.258 78.1815C132.46 78.3346 132.692 78.4432 132.939 78.5C133.186 78.5568 133.443 78.5606 133.691 78.5111C133.676 78.6261 132.105 94.4784 132.266 94.532H132.273ZM125.374 79.293C125.283 78.5557 124.961 77.8661 124.454 77.323C125.505 77.6373 125.727 77.8672 125.987 78.5878C126.195 79.1618 126.25 79.7797 126.148 80.3815C126.045 80.7604 126.045 81.1601 126.148 81.539C126.023 81.5679 125.9 81.6063 125.781 81.654C125.305 80.2972 124.247 80.3125 124.247 78.9481C124.246 78.4548 124.174 77.9643 124.033 77.4916C124.404 78.1644 124.811 78.8169 125.252 79.4463C125.328 79.546 125.474 79.4003 125.382 79.293H125.374ZM125.758 88.9669C125.796 89.3425 126.095 92.6003 126.171 93.4282H125.075C124.845 92.3934 124.5 90.8603 124.109 89.2198L125.758 88.9669ZM125.712 88.3766L123.964 88.6066C123.81 87.9704 123.649 87.3265 123.489 86.6902C124.194 86.5906 124.884 86.4833 125.551 86.3759C125.581 86.7056 125.689 88.0394 125.719 88.3766H125.712ZM128.095 88.024C127.973 87.4415 127.674 86.123 127.651 86.0463C128.318 85.9314 130.587 85.5404 131.054 85.4484C131.054 85.778 130.924 87.1731 130.893 87.5258C130.15 87.6867 129.199 87.8554 128.08 88.024H128.095ZM130.863 88.024C130.725 90.0094 130.51 93.3285 130.502 93.5125C130.104 93.5125 129.682 93.4972 129.238 93.4665C129.054 92.539 128.264 88.8212 128.21 88.5683C129.245 88.3613 130.135 88.1773 130.87 88.001L130.863 88.024ZM132.327 77.5453C132.42 76.5739 132.571 75.6089 132.779 74.6554C132.984 74.594 133.199 74.5794 133.41 74.6125C133.621 74.6457 133.822 74.7258 133.998 74.847C133.952 75.8104 133.85 76.7702 133.691 77.7216C133.622 77.9899 133.607 78.0589 133.431 78.0819C133.086 78.1049 132.388 77.8136 132.335 77.5223L132.327 77.5453ZM133.331 86.6826C133.4 86.1153 133.469 85.5404 133.53 84.9655C133.984 84.8702 134.43 84.7395 134.864 84.5746C134.622 85.4302 134.081 86.1702 133.339 86.6596L133.331 86.6826ZM134.611 83.9383C134.288 84.067 133.954 84.1695 133.615 84.2449C133.753 82.9571 134.565 75.4603 134.565 74.9314C134.565 74.1648 133.201 73.8812 132.495 74.1648C132.258 74.2721 132.189 74.7244 132.12 75.123C131.737 77.2617 131.284 82.5969 131.108 84.7662L127.513 85.4254C126.616 81.516 126.693 81.7307 126.593 81.631C126.524 81.5658 126.435 81.5277 126.34 81.5237C126.269 81.1824 126.288 80.8286 126.394 80.4965C126.552 79.8335 126.531 79.1402 126.332 78.4881C126.23 78.014 125.958 77.5938 125.566 77.3077C124.942 76.9771 124.269 76.7493 123.573 76.6331C123.536 76.6232 123.498 76.6223 123.461 76.6302C123.424 76.6382 123.389 76.6548 123.36 76.6788C123.331 76.7028 123.308 76.7334 123.293 76.7681C123.278 76.8029 123.271 76.8407 123.274 76.8784C123.29 76.9435 123.311 77.0075 123.335 77.07C123.933 78.4958 123.519 79.1474 123.933 79.9982C124.347 80.8491 125.045 80.9794 125.298 81.9606C125.298 82.0373 125.512 85.5787 125.52 85.7934L123.351 86.1383C123.197 85.5557 122.147 81.4087 121.733 81.0024C120.967 80.2359 118.774 81.0944 118.667 81.769C118.598 82.1523 119.648 86.261 119.748 86.6519C115.8 87.2268 111.615 87.7481 107.912 88.093C106.295 88.2387 96.414 89.1432 96.9659 87.5258C97.7324 83.9843 99.2655 77.484 99.5722 76.1195V76.0122C99.5722 75.8972 99.6258 75.7822 99.5722 76.1195C99.5722 76.0045 99.6181 75.9355 99.6335 75.8972L101.55 68.4847C101.803 67.5725 103.543 61.3711 104.424 60.9342C106.379 59.9683 138.505 55.8136 141.219 57.6303C141.679 59.6003 136.029 83.0031 134.619 83.946L134.611 83.9383Z" fill="white"/>
<path d="M72.5131 22.2847V21.6944C72.5131 21.5989 72.4751 21.5072 72.4075 21.4397C72.34 21.3721 72.2483 21.3341 72.1528 21.3341C72.0565 21.3341 71.9641 21.3718 71.8953 21.4392C71.8265 21.5065 71.7868 21.5982 71.7848 21.6944V22.3843C71.8018 22.4755 71.8533 22.5566 71.9285 22.6108C72.0038 22.665 72.0971 22.688 72.1889 22.6752C72.2807 22.6623 72.3641 22.6146 72.4216 22.5418C72.4791 22.4691 72.5064 22.377 72.4977 22.2847H72.5131ZM121.503 69.4581C121.281 69.2435 120.967 68.9905 120.675 69.0825C120.192 69.2358 119.71 70.4623 119.503 70.9682C118.921 72.478 118.46 74.0313 118.123 75.6135C118.437 76.4261 123.742 75.3606 124.462 75.008C124.692 74.9006 124.661 74.6247 124.585 74.3794C123.826 72.5854 122.786 70.924 121.503 69.4581ZM118.33 75.5139C118.468 74.8776 120.215 70.0024 120.813 69.5578C121.741 70.0867 123.604 73.3369 124.102 74.5634C123.412 74.8393 118.728 76.0275 118.33 75.5139ZM55.9172 91.7724C55.8406 91.8261 54.1695 92.8839 54.0929 92.9606C54.0747 92.9681 54.0592 92.9809 54.0483 92.9973C54.0374 93.0136 54.0315 93.0329 54.0315 93.0526C54.0315 93.0722 54.0374 93.0915 54.0483 93.1078C54.0592 93.1242 54.0747 93.137 54.0929 93.1445C54.5221 93.2672 55.9556 93.4282 56.3925 93.4741C66.8789 90.8449 66.9479 90.8449 66.8176 90.8449C66.8881 90.8353 66.9522 90.7989 66.9965 90.7431C67.0407 90.6874 67.0618 90.6168 67.0552 90.5459C67.0552 90.4156 66.8482 89.5111 66.7869 89.2351L55.9172 91.7724ZM76.2308 19.0805C76.4454 19.0805 76.8671 19.1801 76.9514 19.1878C77.4166 19.2361 77.8778 19.318 78.3312 19.4331L79.0211 19.5557C79.0473 19.5623 79.075 19.5594 79.0993 19.5475C79.1236 19.5356 79.1429 19.5156 79.1539 19.4909C79.1649 19.4661 79.1668 19.4384 79.1594 19.4124C79.1519 19.3864 79.1355 19.3639 79.113 19.3488C78.7131 19.0099 78.2279 18.7872 77.7103 18.7049C77.1976 18.5949 76.6639 18.6403 76.1772 18.8352C76.1611 18.8387 76.1458 18.8454 76.1323 18.8548C76.1187 18.8642 76.1072 18.8762 76.0983 18.8901C76.0894 18.904 76.0833 18.9194 76.0804 18.9357C76.0775 18.9519 76.0778 18.9685 76.0813 18.9847C76.0849 19.0008 76.0915 19.016 76.1009 19.0295C76.1104 19.0431 76.1224 19.0546 76.1362 19.0635C76.1501 19.0724 76.1656 19.0785 76.1818 19.0814C76.1981 19.0843 76.2147 19.084 76.2308 19.0805ZM70.1597 19.755C70.3667 19.709 70.8113 19.6401 70.9263 19.6247C71.3908 19.5233 71.8623 19.4567 72.3367 19.4254L73.1033 19.3411C73.1338 19.3411 73.163 19.329 73.1846 19.3074C73.2062 19.2859 73.2183 19.2566 73.2183 19.2261C73.2183 19.1956 73.2062 19.1664 73.1846 19.1448C73.163 19.1233 73.1338 19.1111 73.1033 19.1111C72.6092 18.9017 72.0671 18.8316 71.536 18.9087C71.0048 18.9857 70.505 19.2068 70.0907 19.5481C70.0725 19.5481 70.0546 19.5524 70.0384 19.5607C70.0221 19.569 70.0081 19.581 69.9975 19.5958C69.9868 19.6106 69.9798 19.6277 69.9771 19.6457C69.9743 19.6637 69.9759 19.6821 69.9817 19.6994C69.9874 19.7167 69.9972 19.7324 70.0102 19.7451C70.0232 19.7579 70.0391 19.7674 70.0565 19.7728C70.0739 19.7782 70.0923 19.7795 70.1102 19.7764C70.1282 19.7733 70.1452 19.766 70.1597 19.755ZM77.8252 21.0888C77.7297 21.0888 77.6381 21.1268 77.5705 21.1944C77.5029 21.2619 77.465 21.3536 77.465 21.4491V22.139C77.4782 22.2346 77.5288 22.321 77.6057 22.3792C77.6826 22.4374 77.7795 22.4627 77.8751 22.4495C77.9706 22.4362 78.057 22.3856 78.1152 22.3087C78.1734 22.2318 78.1987 22.1349 78.1855 22.0394V21.4491C78.1866 21.4015 78.178 21.3542 78.1602 21.31C78.1425 21.2658 78.116 21.2257 78.0823 21.192C78.0487 21.1584 78.0085 21.1319 77.9643 21.1141C77.9202 21.0964 77.8728 21.0878 77.8252 21.0888ZM18.3333 87.6407C19.3988 87.9857 21.8824 88.9132 23.0246 88.7752C23.1626 88.7752 23.3159 88.6372 23.4155 88.3919C24.1821 86.6672 23.6302 77.8979 23.3542 76.2038C23.1626 74.985 18.7549 73.4749 17.6894 74.3411C16.9995 74.9006 17.3444 81.3933 17.4211 82.2979C17.6204 84.4825 17.4134 87.3418 18.3333 87.6407ZM18.0343 74.7473C18.8622 74.1494 22.7026 75.5675 22.8253 76.2804C23.0169 77.4839 23.7298 87.6024 22.9633 88.3919C21.9744 88.5376 19.3528 87.7327 18.364 87.4261C17.6664 87.1961 17.904 84.1452 17.789 82.2595C17.7354 80.9871 17.6511 75.9355 18.0343 74.7473ZM72.5054 26.8763C72.4863 26.8668 72.4653 26.8619 72.4441 26.8619C72.4228 26.8619 72.4018 26.8668 72.3827 26.8763C72.1911 26.9453 72.0761 27.1599 72.0455 27.4742C72.0207 28.2863 72.2933 29.0795 72.812 29.7049C72.9336 29.8708 73.0874 30.0107 73.2641 30.116C73.4409 30.2213 73.6371 30.2899 73.8409 30.3178C74.0448 30.3457 74.2522 30.3323 74.4507 30.2783C74.6493 30.2244 74.835 30.131 74.9967 30.0038C75.4587 29.6235 75.8217 29.1369 76.0545 28.5857C76.0755 28.5427 76.0864 28.4955 76.0864 28.4477C76.0864 28.3999 76.0755 28.3527 76.0545 28.3097C75.8169 27.9418 75.2496 28.463 72.5054 26.8763ZM72.4364 27.1369C73.2692 27.8461 74.2441 28.3688 75.2956 28.67C73.6552 31.4603 72.0071 27.6965 72.4364 27.1369ZM74.3144 25.3355C74.805 25.4275 76.1618 25.2589 76.4531 24.7606C76.5988 24.523 76.4531 24.4463 76.1312 23.4651C75.8411 22.6127 75.5006 21.7783 75.1117 20.9662C74.9737 20.7516 74.7974 20.9662 74.897 21.0965C75.11 22.2717 75.4493 23.4206 75.9089 24.523C75.3541 24.7826 74.7861 25.0129 74.2071 25.2129C74.2061 25.228 74.208 25.2431 74.2129 25.2575C74.2177 25.2718 74.2253 25.2851 74.2353 25.2965C74.2453 25.3079 74.2574 25.3172 74.271 25.3239C74.2846 25.3306 74.2993 25.3345 74.3144 25.3355ZM102.585 105.049C105.459 103.225 103.221 101.546 101.32 102.343C100.852 101.492 100.745 101.423 99.7869 101.469C94.812 101.722 72.3444 106.919 72.1298 107.004C70.9953 107.471 73.8775 114.24 75.0197 115.129C75.2803 115.328 75.196 115.367 78.0092 114.815C78.1932 116.486 78.9214 119.414 80.6231 119.506C81.4163 119.361 82.1886 119.119 82.9228 118.786C84.3443 120.2 85.8577 121.519 87.4531 122.733C89.2162 123.914 100.484 110.752 102.171 109.219C102.654 109.058 103.083 108.951 103.029 107.755C104.486 107.487 105.613 106.59 104.838 105.302C104.317 104.52 103.413 104.643 102.585 105.049ZM102.853 102.964C103.167 103.079 103.328 103.202 103.229 103.516C103.022 103.996 102.72 104.429 102.34 104.788C102.136 104.165 101.898 103.553 101.627 102.956C102.023 102.813 102.458 102.816 102.853 102.964ZM94.697 102.711C94.9806 104.053 95.1723 104.781 95.5325 106.015L90.2204 107.019C89.9148 105.91 89.5592 104.815 89.1549 103.738C90.159 103.547 93.8768 102.849 94.697 102.711ZM86.8399 112.945C87.121 113.908 87.5365 114.826 88.074 115.673C86.6022 116.386 85.2148 117.038 84.0343 117.574C83.6108 116.289 83.0151 115.067 82.2636 113.941L86.8399 112.945ZM84.6705 112.945C84.4114 111.613 84.0839 110.295 83.6893 108.997L89.8217 107.671C90.1562 108.969 90.5605 110.249 91.0329 111.503C88.9249 111.948 86.7249 112.446 84.6705 112.914V112.945ZM87.2231 112.983C87.1388 112.86 86.6176 113.044 92.2594 111.749C92.359 112.318 92.57 112.863 92.8803 113.351L88.3883 115.551C88.1216 114.635 87.7295 113.761 87.2231 112.952V112.983ZM92.589 111.664C95.5019 110.99 98.1771 110.346 100.025 109.855L93.2559 113.159C93.1306 112.615 92.9072 112.098 92.5967 111.634L92.589 111.664ZM91.2935 111.427C91.0476 110.119 90.7355 108.824 90.3583 107.548L95.5939 106.26C95.5939 106.299 95.9465 107.479 96.1075 107.985C96.1841 108.215 96.8357 110.07 96.874 110.101C95.2872 110.453 91.4162 111.365 91.2859 111.396L91.2935 111.427ZM88.9249 103.815C89.1778 105.21 89.4155 106.115 89.6914 107.157L83.559 108.506C83.1988 107.287 82.9535 106.49 82.4245 105.11C83.6204 104.834 88.005 103.961 88.9325 103.784L88.9249 103.815ZM82.1716 105.156C82.4705 106.689 82.6928 107.494 83.0148 108.629C82.5012 108.744 78.3082 109.794 78.3082 109.794C78.1549 109.794 78.2162 110.032 78.3695 110.001C78.3695 110.001 82.9151 109.158 83.1451 109.104C83.1451 109.104 83.4747 110.423 84.4176 113.006L79.4733 114.11C78.7661 111.436 77.8774 108.813 76.8134 106.26L82.1716 105.156ZM75.2343 114.869C74.0691 113.995 71.4016 107.556 72.2064 107.203C72.2064 107.203 73.9618 106.82 76.5988 106.268C77.256 108.954 78.1328 111.582 79.2204 114.125C75.1883 115.03 75.3646 114.938 75.242 114.838L75.2343 114.869ZM80.6002 118.947C79.3047 118.947 78.5305 116.149 78.3005 114.876C78.3005 114.731 77.8942 114.876 81.9033 114.041C82.1026 114.002 81.7883 113.949 82.7465 115.942C83.0213 116.568 83.3604 117.164 83.7583 117.72C82.75 118.203 81.7041 118.603 80.6308 118.916L80.6002 118.947ZM87.7444 122.227C86.1859 121.135 84.6889 119.958 83.2601 118.701C84.5785 118.157 86.0733 117.46 87.3611 116.846C88.3694 118.018 89.5117 119.068 90.7646 119.974C90.2433 120.418 88.4726 122.059 87.7751 122.197L87.7444 122.227ZM90.9869 119.744C89.9745 118.614 88.8408 117.598 87.6064 116.716L92.4204 114.347C93.0911 115.036 93.8674 115.613 94.72 116.057C93.5145 117.304 92.28 118.523 91.0176 119.713L90.9869 119.744ZM94.9806 115.811C94.3413 115.159 93.6137 114.599 92.819 114.148C96.1151 112.485 98.0085 111.473 101.082 109.771C99.7179 110.974 96.2531 114.516 95.0113 115.781L94.9806 115.811ZM102.294 108.606C101.964 108.843 97.4489 109.947 97.058 110.039C96.5698 107.532 95.854 105.073 94.9193 102.696C96.4064 102.443 99.35 101.929 100.446 102.052C100.594 102.226 100.723 102.416 100.829 102.619C100.306 102.975 99.8733 103.447 99.5646 103.999C99.4879 104.191 99.6872 104.29 99.7869 104.198C100.17 103.792 100.619 103.453 101.113 103.194C101.461 103.913 101.763 104.653 102.018 105.409C101.336 105.875 100.723 106.432 100.193 107.065C100.094 107.188 100.124 107.28 100.193 107.318C100.377 107.425 100.392 107.149 102.202 106.076C102.384 106.697 102.487 107.338 102.508 107.985C102.47 108.123 102.447 108.476 102.324 108.575L102.294 108.606ZM104.202 106.551C103.86 106.944 103.429 107.248 102.945 107.441C102.875 106.894 102.764 106.354 102.615 105.823C103.114 105.57 103.888 105.248 104.149 105.716C104.247 105.824 104.308 105.96 104.323 106.105C104.338 106.249 104.307 106.395 104.233 106.521L104.202 106.551Z" fill="white"/>
</svg>
